<?xml version="1.0" encoding="UTF-8" standalone="no"?>
<!DOCTYPE svg PUBLIC "-//W3C//DTD SVG 1.1//EN"
 "http://www.w3.org/Graphics/SVG/1.1/DTD/svg11.dtd">
<!-- Generated by graphviz version 2.36.0 (20140111.2315)
 -->
<!-- Title: controllers_diagram Pages: 1 -->
<svg width="554pt" height="589pt"
 viewBox="0.00 0.00 554.00 589.00" xmlns="http://www.w3.org/2000/svg" xmlns:xlink="http://www.w3.org/1999/xlink">
<g id="graph0" class="graph" transform="scale(1 1) rotate(0) translate(4 585)">
<title>controllers_diagram</title>
<polygon fill="none" stroke="none" points="-4,4 -4,-585 550,-585 550,4 -4,4"/>
<!-- _diagram_info -->
<g id="node1" class="node"><title>_diagram_info</title>
<text text-anchor="start" x="42" y="-471.6" font-family="Times,serif" font-size="13.00">Controllers diagram</text>
<text text-anchor="start" x="42" y="-457.6" font-family="Times,serif" font-size="13.00">Date: Jan 23 2018 &#45; 19:33</text>
<text text-anchor="start" x="42" y="-443.6" font-family="Times,serif" font-size="13.00">Migration version: 20180123144516</text>
<text text-anchor="start" x="42" y="-429.6" font-family="Times,serif" font-size="13.00">Generated by RailRoady 1.5.3</text>
<text text-anchor="start" x="42" y="-415.6" font-family="Times,serif" font-size="13.00">http://railroady.prestonlee.com</text>
</g>
<!-- LoginsController -->
<g id="node2" class="node"><title>LoginsController</title>
<path fill="none" stroke="black" d="M12,-85.5C12,-85.5 98,-85.5 98,-85.5 104,-85.5 110,-91.5 110,-97.5 110,-97.5 110,-196.5 110,-196.5 110,-202.5 104,-208.5 98,-208.5 98,-208.5 12,-208.5 12,-208.5 6,-208.5 0,-202.5 0,-196.5 0,-196.5 0,-97.5 0,-97.5 0,-91.5 6,-85.5 12,-85.5"/>
<text text-anchor="middle" x="55" y="-193.3" font-family="Times,serif" font-size="14.00">LoginsController</text>
<polyline fill="none" stroke="black" points="0,-185.5 110,-185.5 "/>
<text text-anchor="start" x="8" y="-170.3" font-family="Times,serif" font-size="14.00">create</text>
<text text-anchor="start" x="8" y="-155.3" font-family="Times,serif" font-size="14.00">destroy</text>
<text text-anchor="start" x="8" y="-140.3" font-family="Times,serif" font-size="14.00">new</text>
<polyline fill="none" stroke="black" points="0,-132.5 110,-132.5 "/>
<polyline fill="none" stroke="black" points="0,-108.5 110,-108.5 "/>
<text text-anchor="start" x="8" y="-93.3" font-family="Times,serif" font-size="14.00">_layout</text>
</g>
<!-- PagesController -->
<g id="node3" class="node"><title>PagesController</title>
<path fill="none" stroke="black" d="M454,-153.5C454,-153.5 534,-153.5 534,-153.5 540,-153.5 546,-159.5 546,-165.5 546,-165.5 546,-234.5 546,-234.5 546,-240.5 540,-246.5 534,-246.5 534,-246.5 454,-246.5 454,-246.5 448,-246.5 442,-240.5 442,-234.5 442,-234.5 442,-165.5 442,-165.5 442,-159.5 448,-153.5 454,-153.5"/>
<text text-anchor="middle" x="494" y="-231.3" font-family="Times,serif" font-size="14.00">PagesController</text>
<polyline fill="none" stroke="black" points="442,-223.5 546,-223.5 "/>
<text text-anchor="start" x="450" y="-208.3" font-family="Times,serif" font-size="14.00">home</text>
<polyline fill="none" stroke="black" points="442,-200.5 546,-200.5 "/>
<polyline fill="none" stroke="black" points="442,-176.5 546,-176.5 "/>
<text text-anchor="start" x="450" y="-161.3" font-family="Times,serif" font-size="14.00">_layout</text>
</g>
<!-- RecipesController -->
<g id="node4" class="node"><title>RecipesController</title>
<path fill="none" stroke="black" d="M148,-85.5C148,-85.5 243,-85.5 243,-85.5 249,-85.5 255,-91.5 255,-97.5 255,-97.5 255,-346.5 255,-346.5 255,-352.5 249,-358.5 243,-358.5 243,-358.5 148,-358.5 148,-358.5 142,-358.5 136,-352.5 136,-346.5 136,-346.5 136,-97.5 136,-97.5 136,-91.5 142,-85.5 148,-85.5"/>
<text text-anchor="middle" x="195.5" y="-343.3" font-family="Times,serif" font-size="14.00">RecipesController</text>
<polyline fill="none" stroke="black" points="136,-335.5 255,-335.5 "/>
<text text-anchor="start" x="144" y="-320.3" font-family="Times,serif" font-size="14.00">create</text>
<text text-anchor="start" x="144" y="-305.3" font-family="Times,serif" font-size="14.00">destroy</text>
<text text-anchor="start" x="144" y="-290.3" font-family="Times,serif" font-size="14.00">edit</text>
<text text-anchor="start" x="144" y="-275.3" font-family="Times,serif" font-size="14.00">index</text>
<text text-anchor="start" x="144" y="-260.3" font-family="Times,serif" font-size="14.00">like</text>
<text text-anchor="start" x="144" y="-245.3" font-family="Times,serif" font-size="14.00">new</text>
<text text-anchor="start" x="144" y="-230.3" font-family="Times,serif" font-size="14.00">show</text>
<text text-anchor="start" x="144" y="-215.3" font-family="Times,serif" font-size="14.00">update</text>
<polyline fill="none" stroke="black" points="136,-207.5 255,-207.5 "/>
<polyline fill="none" stroke="black" points="136,-183.5 255,-183.5 "/>
<text text-anchor="start" x="144" y="-168.3" font-family="Times,serif" font-size="14.00">_layout</text>
<text text-anchor="start" x="144" y="-153.3" font-family="Times,serif" font-size="14.00">admin_user</text>
<text text-anchor="start" x="144" y="-138.3" font-family="Times,serif" font-size="14.00">recipe_params</text>
<text text-anchor="start" x="144" y="-123.3" font-family="Times,serif" font-size="14.00">require_same_user</text>
<text text-anchor="start" x="144" y="-108.3" font-family="Times,serif" font-size="14.00">require_user_like</text>
<text text-anchor="start" x="144" y="-93.3" font-family="Times,serif" font-size="14.00">set_recipe</text>
</g>
<!-- StylesController -->
<g id="node5" class="node"><title>StylesController</title>
<path fill="none" stroke="black" d="M12,-238.5C12,-238.5 93,-238.5 93,-238.5 99,-238.5 105,-244.5 105,-250.5 105,-250.5 105,-364.5 105,-364.5 105,-370.5 99,-376.5 93,-376.5 93,-376.5 12,-376.5 12,-376.5 6,-376.5 0,-370.5 0,-364.5 0,-364.5 0,-250.5 0,-250.5 0,-244.5 6,-238.5 12,-238.5"/>
<text text-anchor="middle" x="52.5" y="-361.3" font-family="Times,serif" font-size="14.00">StylesController</text>
<polyline fill="none" stroke="black" points="0,-353.5 105,-353.5 "/>
<text text-anchor="start" x="8" y="-338.3" font-family="Times,serif" font-size="14.00">create</text>
<text text-anchor="start" x="8" y="-323.3" font-family="Times,serif" font-size="14.00">new</text>
<text text-anchor="start" x="8" y="-308.3" font-family="Times,serif" font-size="14.00">show</text>
<polyline fill="none" stroke="black" points="0,-300.5 105,-300.5 "/>
<polyline fill="none" stroke="black" points="0,-276.5 105,-276.5 "/>
<text text-anchor="start" x="8" y="-261.3" font-family="Times,serif" font-size="14.00">_layout</text>
<text text-anchor="start" x="8" y="-246.3" font-family="Times,serif" font-size="14.00">style_params</text>
</g>
<!-- IngredientsController -->
<g id="node6" class="node"><title>IngredientsController</title>
<path fill="none" stroke="black" d="M420,-442.5C420,-442.5 529,-442.5 529,-442.5 535,-442.5 541,-448.5 541,-454.5 541,-454.5 541,-568.5 541,-568.5 541,-574.5 535,-580.5 529,-580.5 529,-580.5 420,-580.5 420,-580.5 414,-580.5 408,-574.5 408,-568.5 408,-568.5 408,-454.5 408,-454.5 408,-448.5 414,-442.5 420,-442.5"/>
<text text-anchor="middle" x="474.5" y="-565.3" font-family="Times,serif" font-size="14.00">IngredientsController</text>
<polyline fill="none" stroke="black" points="408,-557.5 541,-557.5 "/>
<text text-anchor="start" x="416" y="-542.3" font-family="Times,serif" font-size="14.00">create</text>
<text text-anchor="start" x="416" y="-527.3" font-family="Times,serif" font-size="14.00">new</text>
<text text-anchor="start" x="416" y="-512.3" font-family="Times,serif" font-size="14.00">show</text>
<polyline fill="none" stroke="black" points="408,-504.5 541,-504.5 "/>
<polyline fill="none" stroke="black" points="408,-480.5 541,-480.5 "/>
<text text-anchor="start" x="416" y="-465.3" font-family="Times,serif" font-size="14.00">_layout</text>
<text text-anchor="start" x="416" y="-450.3" font-family="Times,serif" font-size="14.00">ing_params</text>
</g>
<!-- ChefsController -->
<g id="node7" class="node"><title>ChefsController</title>
<path fill="none" stroke="black" d="M301,-153.5C301,-153.5 396,-153.5 396,-153.5 402,-153.5 408,-159.5 408,-165.5 408,-165.5 408,-399.5 408,-399.5 408,-405.5 402,-411.5 396,-411.5 396,-411.5 301,-411.5 301,-411.5 295,-411.5 289,-405.5 289,-399.5 289,-399.5 289,-165.5 289,-165.5 289,-159.5 295,-153.5 301,-153.5"/>
<text text-anchor="middle" x="348.5" y="-396.3" font-family="Times,serif" font-size="14.00">ChefsController</text>
<polyline fill="none" stroke="black" points="289,-388.5 408,-388.5 "/>
<text text-anchor="start" x="297" y="-373.3" font-family="Times,serif" font-size="14.00">create</text>
<text text-anchor="start" x="297" y="-358.3" font-family="Times,serif" font-size="14.00">destroy</text>
<text text-anchor="start" x="297" y="-343.3" font-family="Times,serif" font-size="14.00">edit</text>
<text text-anchor="start" x="297" y="-328.3" font-family="Times,serif" font-size="14.00">follow</text>
<text text-anchor="start" x="297" y="-313.3" font-family="Times,serif" font-size="14.00">index</text>
<text text-anchor="start" x="297" y="-298.3" font-family="Times,serif" font-size="14.00">new</text>
<text text-anchor="start" x="297" y="-283.3" font-family="Times,serif" font-size="14.00">show</text>
<text text-anchor="start" x="297" y="-268.3" font-family="Times,serif" font-size="14.00">unfollow</text>
<text text-anchor="start" x="297" y="-253.3" font-family="Times,serif" font-size="14.00">update</text>
<polyline fill="none" stroke="black" points="289,-245.5 408,-245.5 "/>
<polyline fill="none" stroke="black" points="289,-221.5 408,-221.5 "/>
<text text-anchor="start" x="297" y="-206.3" font-family="Times,serif" font-size="14.00">_layout</text>
<text text-anchor="start" x="297" y="-191.3" font-family="Times,serif" font-size="14.00">chef_params</text>
<text text-anchor="start" x="297" y="-176.3" font-family="Times,serif" font-size="14.00">require_same_user</text>
<text text-anchor="start" x="297" y="-161.3" font-family="Times,serif" font-size="14.00">set_chef</text>
</g>
<!-- ApplicationController -->
<g id="node8" class="node"><title>ApplicationController</title>
<path fill="none" stroke="black" d="M301,-0.5C301,-0.5 413,-0.5 413,-0.5 419,-0.5 425,-6.5 425,-12.5 425,-12.5 425,-111.5 425,-111.5 425,-117.5 419,-123.5 413,-123.5 413,-123.5 301,-123.5 301,-123.5 295,-123.5 289,-117.5 289,-111.5 289,-111.5 289,-12.5 289,-12.5 289,-6.5 295,-0.5 301,-0.5"/>
<text text-anchor="middle" x="357" y="-108.3" font-family="Times,serif" font-size="14.00">ApplicationController</text>
<polyline fill="none" stroke="black" points="289,-100.5 425,-100.5 "/>
<text text-anchor="start" x="297" y="-85.3" font-family="Times,serif" font-size="14.00">current_user</text>
<text text-anchor="start" x="297" y="-70.3" font-family="Times,serif" font-size="14.00">logged_in?</text>
<text text-anchor="start" x="297" y="-55.3" font-family="Times,serif" font-size="14.00">require_user</text>
<polyline fill="none" stroke="black" points="289,-47.5 425,-47.5 "/>
<polyline fill="none" stroke="black" points="289,-23.5 425,-23.5 "/>
<text text-anchor="start" x="297" y="-8.3" font-family="Times,serif" font-size="14.00">_layout</text>
</g>
</g>
</svg>
