<?xml version="1.0" encoding="UTF-8" standalone="no"?>
<!DOCTYPE svg PUBLIC "-//W3C//DTD SVG 1.1//EN"
 "http://www.w3.org/Graphics/SVG/1.1/DTD/svg11.dtd">
<!-- Generated by graphviz version 2.36.0 (20140111.2315)
 -->
<!-- Title: models_diagram Pages: 1 -->
<svg width="851pt" height="492pt"
 viewBox="0.00 0.00 851.00 492.00" xmlns="http://www.w3.org/2000/svg" xmlns:xlink="http://www.w3.org/1999/xlink">
<g id="graph0" class="graph" transform="scale(1 1) rotate(0) translate(4 488)">
<title>models_diagram</title>
<polygon fill="none" stroke="none" points="-4,4 -4,-488 847,-488 847,4 -4,4"/>
<!-- _diagram_info -->
<g id="node1" class="node"><title>_diagram_info</title>
<text text-anchor="start" x="8" y="-439.6" font-family="Times,serif" font-size="13.00">Models diagram</text>
<text text-anchor="start" x="8" y="-425.6" font-family="Times,serif" font-size="13.00">Date: Jan 23 2018 &#45; 19:33</text>
<text text-anchor="start" x="8" y="-411.6" font-family="Times,serif" font-size="13.00">Migration version: 20180123144516</text>
<text text-anchor="start" x="8" y="-397.6" font-family="Times,serif" font-size="13.00">Generated by RailRoady 1.5.3</text>
<text text-anchor="start" x="8" y="-383.6" font-family="Times,serif" font-size="13.00">http://railroady.prestonlee.com</text>
</g>
<!-- Style -->
<g id="node2" class="node"><title>Style</title>
<path fill="none" stroke="black" d="M244,-384.5C244,-384.5 344,-384.5 344,-384.5 350,-384.5 356,-390.5 356,-396.5 356,-396.5 356,-433.5 356,-433.5 356,-439.5 350,-445.5 344,-445.5 344,-445.5 244,-445.5 244,-445.5 238,-445.5 232,-439.5 232,-433.5 232,-433.5 232,-396.5 232,-396.5 232,-390.5 238,-384.5 244,-384.5"/>
<text text-anchor="middle" x="294" y="-430.3" font-family="Times,serif" font-size="14.00">Style</text>
<polyline fill="none" stroke="black" points="232,-422.5 356,-422.5 "/>
<text text-anchor="start" x="240" y="-407.3" font-family="Times,serif" font-size="14.00">id :INTEGER</text>
<text text-anchor="start" x="240" y="-392.3" font-family="Times,serif" font-size="14.00">name :varchar(255)</text>
</g>
<!-- RecipeStyle -->
<g id="node4" class="node"><title>RecipeStyle</title>
<path fill="none" stroke="black" d="M270,-23C270,-23 358,-23 358,-23 364,-23 370,-29 370,-35 370,-35 370,-87 370,-87 370,-93 364,-99 358,-99 358,-99 270,-99 270,-99 264,-99 258,-93 258,-87 258,-87 258,-35 258,-35 258,-29 264,-23 270,-23"/>
<text text-anchor="middle" x="314" y="-83.8" font-family="Times,serif" font-size="14.00">RecipeStyle</text>
<polyline fill="none" stroke="black" points="258,-76 370,-76 "/>
<text text-anchor="start" x="266" y="-60.8" font-family="Times,serif" font-size="14.00">id :INTEGER</text>
<text text-anchor="start" x="266" y="-45.8" font-family="Times,serif" font-size="14.00">style_id :integer</text>
<text text-anchor="start" x="266" y="-30.8" font-family="Times,serif" font-size="14.00">recipe_id :integer</text>
</g>
<!-- Style&#45;&gt;RecipeStyle -->
<g id="edge1" class="edge"><title>Style&#45;&gt;RecipeStyle</title>
<path fill="none" stroke="#b7f3cb" d="M296.16,-375.982C299.835,-311.3 307.295,-180.007 311.305,-109.425"/>
<ellipse fill="none" stroke="#b7f3cb" cx="295.915" cy="-380.298" rx="4" ry="4"/>
<polygon fill="#b7f3cb" stroke="#b7f3cb" points="311.327,-109.036 316.388,-99.3078 311.611,-104.044 311.895,-99.0525 311.895,-99.0525 311.895,-99.0525 311.611,-104.044 307.402,-98.7972 311.327,-109.036 311.327,-109.036"/>
</g>
<!-- Recipe -->
<g id="node9" class="node"><title>Recipe</title>
<path fill="none" stroke="black" d="M370.5,-158.5C370.5,-158.5 477.5,-158.5 477.5,-158.5 483.5,-158.5 489.5,-164.5 489.5,-170.5 489.5,-170.5 489.5,-297.5 489.5,-297.5 489.5,-303.5 483.5,-309.5 477.5,-309.5 477.5,-309.5 370.5,-309.5 370.5,-309.5 364.5,-309.5 358.5,-303.5 358.5,-297.5 358.5,-297.5 358.5,-170.5 358.5,-170.5 358.5,-164.5 364.5,-158.5 370.5,-158.5"/>
<text text-anchor="middle" x="424" y="-294.3" font-family="Times,serif" font-size="14.00">Recipe</text>
<polyline fill="none" stroke="black" points="358.5,-286.5 489.5,-286.5 "/>
<text text-anchor="start" x="366.5" y="-271.3" font-family="Times,serif" font-size="14.00">id :INTEGER</text>
<text text-anchor="start" x="366.5" y="-256.3" font-family="Times,serif" font-size="14.00">name :varchar(255)</text>
<text text-anchor="start" x="366.5" y="-241.3" font-family="Times,serif" font-size="14.00">summary :text</text>
<text text-anchor="start" x="366.5" y="-226.3" font-family="Times,serif" font-size="14.00">description :text</text>
<text text-anchor="start" x="366.5" y="-211.3" font-family="Times,serif" font-size="14.00">created_at :datetime</text>
<text text-anchor="start" x="366.5" y="-196.3" font-family="Times,serif" font-size="14.00">updated_at :datetime</text>
<text text-anchor="start" x="366.5" y="-181.3" font-family="Times,serif" font-size="14.00">chef_id :integer</text>
<text text-anchor="start" x="366.5" y="-166.3" font-family="Times,serif" font-size="14.00">picture :varchar(255)</text>
</g>
<!-- Style&#45;&gt;Recipe -->
<g id="edge2" class="edge"><title>Style&#45;&gt;Recipe</title>
<path fill="none" stroke="#8198aa" d="M321.447,-376.208C333.776,-359.231 348.849,-338.477 363.605,-318.16"/>
<polygon fill="#8198aa" stroke="#8198aa" points="321.343,-376.351 311.826,-381.797 318.405,-380.396 315.467,-384.442 315.467,-384.442 315.467,-384.442 318.405,-380.396 319.108,-387.086 321.343,-376.351 321.343,-376.351"/>
<polygon fill="#8198aa" stroke="#8198aa" points="363.801,-317.889 373.318,-312.442 366.739,-313.844 369.677,-309.798 369.677,-309.798 369.677,-309.798 366.739,-313.844 366.036,-307.154 363.801,-317.889 363.801,-317.889"/>
</g>
<!-- Like -->
<g id="node3" class="node"><title>Like</title>
<path fill="none" stroke="black" d="M403.5,-0.5C403.5,-0.5 510.5,-0.5 510.5,-0.5 516.5,-0.5 522.5,-6.5 522.5,-12.5 522.5,-12.5 522.5,-109.5 522.5,-109.5 522.5,-115.5 516.5,-121.5 510.5,-121.5 510.5,-121.5 403.5,-121.5 403.5,-121.5 397.5,-121.5 391.5,-115.5 391.5,-109.5 391.5,-109.5 391.5,-12.5 391.5,-12.5 391.5,-6.5 397.5,-0.5 403.5,-0.5"/>
<text text-anchor="middle" x="457" y="-106.3" font-family="Times,serif" font-size="14.00">Like</text>
<polyline fill="none" stroke="black" points="391.5,-98.5 522.5,-98.5 "/>
<text text-anchor="start" x="399.5" y="-83.3" font-family="Times,serif" font-size="14.00">id :INTEGER</text>
<text text-anchor="start" x="399.5" y="-68.3" font-family="Times,serif" font-size="14.00">like :boolean</text>
<text text-anchor="start" x="399.5" y="-53.3" font-family="Times,serif" font-size="14.00">chef_id :integer</text>
<text text-anchor="start" x="399.5" y="-38.3" font-family="Times,serif" font-size="14.00">recipe_id :integer</text>
<text text-anchor="start" x="399.5" y="-23.3" font-family="Times,serif" font-size="14.00">created_at :datetime</text>
<text text-anchor="start" x="399.5" y="-8.3" font-family="Times,serif" font-size="14.00">updated_at :datetime</text>
</g>
<!-- Follower -->
<g id="node5" class="node"><title>Follower</title>
<path fill="none" stroke="black" d="M730.5,-377C730.5,-377 831.5,-377 831.5,-377 837.5,-377 843.5,-383 843.5,-389 843.5,-389 843.5,-441 843.5,-441 843.5,-447 837.5,-453 831.5,-453 831.5,-453 730.5,-453 730.5,-453 724.5,-453 718.5,-447 718.5,-441 718.5,-441 718.5,-389 718.5,-389 718.5,-383 724.5,-377 730.5,-377"/>
<text text-anchor="middle" x="781" y="-437.8" font-family="Times,serif" font-size="14.00">Follower</text>
<polyline fill="none" stroke="black" points="718.5,-430 843.5,-430 "/>
<text text-anchor="start" x="726.5" y="-414.8" font-family="Times,serif" font-size="14.00">id :INTEGER</text>
<text text-anchor="start" x="726.5" y="-399.8" font-family="Times,serif" font-size="14.00">chef_id :integer</text>
<text text-anchor="start" x="726.5" y="-384.8" font-family="Times,serif" font-size="14.00">follower_id :integer</text>
</g>
<!-- RecipeIngredient -->
<g id="node6" class="node"><title>RecipeIngredient</title>
<path fill="none" stroke="black" d="M555,-23C555,-23 665,-23 665,-23 671,-23 677,-29 677,-35 677,-35 677,-87 677,-87 677,-93 671,-99 665,-99 665,-99 555,-99 555,-99 549,-99 543,-93 543,-87 543,-87 543,-35 543,-35 543,-29 549,-23 555,-23"/>
<text text-anchor="middle" x="610" y="-83.8" font-family="Times,serif" font-size="14.00">RecipeIngredient</text>
<polyline fill="none" stroke="black" points="543,-76 677,-76 "/>
<text text-anchor="start" x="551" y="-60.8" font-family="Times,serif" font-size="14.00">id :INTEGER</text>
<text text-anchor="start" x="551" y="-45.8" font-family="Times,serif" font-size="14.00">ingredient_id :integer</text>
<text text-anchor="start" x="551" y="-30.8" font-family="Times,serif" font-size="14.00">recipe_id :integer</text>
</g>
<!-- Ingredient -->
<g id="node7" class="node"><title>Ingredient</title>
<path fill="none" stroke="black" d="M588,-384.5C588,-384.5 688,-384.5 688,-384.5 694,-384.5 700,-390.5 700,-396.5 700,-396.5 700,-433.5 700,-433.5 700,-439.5 694,-445.5 688,-445.5 688,-445.5 588,-445.5 588,-445.5 582,-445.5 576,-439.5 576,-433.5 576,-433.5 576,-396.5 576,-396.5 576,-390.5 582,-384.5 588,-384.5"/>
<text text-anchor="middle" x="638" y="-430.3" font-family="Times,serif" font-size="14.00">Ingredient</text>
<polyline fill="none" stroke="black" points="576,-422.5 700,-422.5 "/>
<text text-anchor="start" x="584" y="-407.3" font-family="Times,serif" font-size="14.00">id :INTEGER</text>
<text text-anchor="start" x="584" y="-392.3" font-family="Times,serif" font-size="14.00">name :varchar(255)</text>
</g>
<!-- Ingredient&#45;&gt;RecipeIngredient -->
<g id="edge3" class="edge"><title>Ingredient&#45;&gt;RecipeIngredient</title>
<path fill="none" stroke="#c41f0e" d="M634.976,-375.982C629.831,-311.3 619.387,-180.007 613.772,-109.425"/>
<ellipse fill="none" stroke="#c41f0e" cx="635.32" cy="-380.305" rx="4" ry="4"/>
<polygon fill="#c41f0e" stroke="#c41f0e" points="613.74,-109.021 617.433,-98.6956 613.344,-104.037 612.947,-99.0525 612.947,-99.0525 612.947,-99.0525 613.344,-104.037 608.462,-99.4093 613.74,-109.021 613.74,-109.021"/>
</g>
<!-- Ingredient&#45;&gt;Recipe -->
<g id="edge4" class="edge"><title>Ingredient&#45;&gt;Recipe</title>
<path fill="none" stroke="#c44ffc" d="M601.001,-377.171C590.247,-366.851 578.339,-355.785 567,-346 545.067,-327.074 520.388,-307.385 497.785,-289.938"/>
<polygon fill="#c44ffc" stroke="#c44ffc" points="601.052,-377.22 605.113,-387.406 604.646,-380.695 608.241,-384.171 608.241,-384.171 608.241,-384.171 604.646,-380.695 611.369,-380.936 601.052,-377.22 601.052,-377.22"/>
<polygon fill="#c44ffc" stroke="#c44ffc" points="497.489,-289.71 492.303,-280.049 493.525,-286.664 489.56,-283.617 489.56,-283.617 489.56,-283.617 493.525,-286.664 486.818,-287.185 497.489,-289.71 497.489,-289.71"/>
</g>
<!-- Chef -->
<g id="node8" class="node"><title>Chef</title>
<path fill="none" stroke="black" d="M386,-347C386,-347 546,-347 546,-347 552,-347 558,-353 558,-359 558,-359 558,-471 558,-471 558,-477 552,-483 546,-483 546,-483 386,-483 386,-483 380,-483 374,-477 374,-471 374,-471 374,-359 374,-359 374,-353 380,-347 386,-347"/>
<text text-anchor="middle" x="466" y="-467.8" font-family="Times,serif" font-size="14.00">Chef</text>
<polyline fill="none" stroke="black" points="374,-460 558,-460 "/>
<text text-anchor="start" x="382" y="-444.8" font-family="Times,serif" font-size="14.00">id :INTEGER</text>
<text text-anchor="start" x="382" y="-429.8" font-family="Times,serif" font-size="14.00">chefname :varchar(255)</text>
<text text-anchor="start" x="382" y="-414.8" font-family="Times,serif" font-size="14.00">email :varchar(255)</text>
<text text-anchor="start" x="382" y="-399.8" font-family="Times,serif" font-size="14.00">created_at :datetime</text>
<text text-anchor="start" x="382" y="-384.8" font-family="Times,serif" font-size="14.00">updated_at :datetime</text>
<text text-anchor="start" x="382" y="-369.8" font-family="Times,serif" font-size="14.00">password_digest :varchar(255)</text>
<text text-anchor="start" x="382" y="-354.8" font-family="Times,serif" font-size="14.00">admin :boolean</text>
</g>
<!-- Chef&#45;&gt;Like -->
<g id="edge6" class="edge"><title>Chef&#45;&gt;Like</title>
<path fill="none" stroke="#f4fba8" d="M491.898,-339.231C494.411,-329.498 496.559,-319.581 498,-310 508.045,-243.195 511.541,-224.184 498,-158 496.186,-149.133 493.519,-140.073 490.402,-131.232"/>
<ellipse fill="none" stroke="#f4fba8" cx="490.849" cy="-343.125" rx="4.00001" ry="4.00001"/>
<polygon fill="#f4fba8" stroke="#f4fba8" points="490.358,-131.113 491.078,-120.171 488.61,-126.429 486.862,-121.744 486.862,-121.744 486.862,-121.744 488.61,-126.429 482.646,-123.317 490.358,-131.113 490.358,-131.113"/>
</g>
<!-- Chef&#45;&gt;Recipe -->
<g id="edge5" class="edge"><title>Chef&#45;&gt;Recipe</title>
<path fill="none" stroke="#e5f1c2" d="M448.36,-338.822C446.879,-332.51 445.375,-326.1 443.879,-319.723"/>
<ellipse fill="none" stroke="#e5f1c2" cx="449.327" cy="-342.943" rx="4.00001" ry="4.00001"/>
<polygon fill="#e5f1c2" stroke="#e5f1c2" points="443.823,-319.483 445.92,-308.719 442.681,-314.615 441.539,-309.747 441.539,-309.747 441.539,-309.747 442.681,-314.615 437.157,-310.775 443.823,-319.483 443.823,-319.483"/>
</g>
<!-- Recipe&#45;&gt;Like -->
<g id="edge7" class="edge"><title>Recipe&#45;&gt;Like</title>
<path fill="none" stroke="#185704" d="M439.946,-150.369C441.146,-144.155 442.349,-137.921 443.53,-131.798"/>
<ellipse fill="none" stroke="#185704" cx="439.136" cy="-154.567" rx="4.00001" ry="4.00001"/>
<polygon fill="#185704" stroke="#185704" points="443.599,-131.441 449.913,-122.475 444.547,-126.531 445.494,-121.622 445.494,-121.622 445.494,-121.622 444.547,-126.531 441.076,-120.769 443.599,-131.441 443.599,-131.441"/>
</g>
<!-- Recipe&#45;&gt;RecipeStyle -->
<g id="edge8" class="edge"><title>Recipe&#45;&gt;RecipeStyle</title>
<path fill="none" stroke="#5a63dc" d="M371.725,-151.737C362.02,-136.649 352.202,-121.386 343.482,-107.832"/>
<ellipse fill="none" stroke="#5a63dc" cx="373.908" cy="-155.13" rx="4.00002" ry="4.00002"/>
<polygon fill="#5a63dc" stroke="#5a63dc" points="343.334,-107.6 341.708,-96.7555 340.629,-103.395 337.923,-99.1901 337.923,-99.1901 337.923,-99.1901 340.629,-103.395 334.139,-101.625 343.334,-107.6 343.334,-107.6"/>
</g>
<!-- Recipe&#45;&gt;RecipeIngredient -->
<g id="edge9" class="edge"><title>Recipe&#45;&gt;RecipeIngredient</title>
<path fill="none" stroke="#038dca" d="M495.566,-167.206C517.818,-146.748 541.801,-124.699 562.035,-106.097"/>
<ellipse fill="none" stroke="#038dca" cx="492.521" cy="-170.005" rx="4.00002" ry="4.00002"/>
<polygon fill="#038dca" stroke="#038dca" points="562.233,-105.914 572.641,-102.459 565.914,-102.53 569.595,-99.1464 569.595,-99.1464 569.595,-99.1464 565.914,-102.53 566.549,-95.8337 562.233,-105.914 562.233,-105.914"/>
</g>
</g>
</svg>
