<?xml version="1.0" encoding="UTF-8" standalone="no"?>
<!DOCTYPE svg PUBLIC "-//W3C//DTD SVG 1.1//EN"
 "http://www.w3.org/Graphics/SVG/1.1/DTD/svg11.dtd">
<!-- Generated by graphviz version 2.36.0 (20140111.2315)
 -->
<!-- Title: models_diagram Pages: 1 -->
<svg width="590pt" height="230pt"
 viewBox="0.00 0.00 590.00 230.00" xmlns="http://www.w3.org/2000/svg" xmlns:xlink="http://www.w3.org/1999/xlink">
<g id="graph0" class="graph" transform="scale(1 1) rotate(0) translate(4 226)">
<title>models_diagram</title>
<polygon fill="none" stroke="none" points="-4,4 -4,-226 586,-226 586,4 -4,4"/>
<!-- _diagram_info -->
<g id="node1" class="node"><title>_diagram_info</title>
<text text-anchor="start" x="8" y="-207.6" font-family="Times,serif" font-size="13.00">Models diagram</text>
<text text-anchor="start" x="8" y="-193.6" font-family="Times,serif" font-size="13.00">Date: Jan 23 2018 &#45; 19:33</text>
<text text-anchor="start" x="8" y="-179.6" font-family="Times,serif" font-size="13.00">Migration version: 20180123144516</text>
<text text-anchor="start" x="8" y="-165.6" font-family="Times,serif" font-size="13.00">Generated by RailRoady 1.5.3</text>
<text text-anchor="start" x="8" y="-151.6" font-family="Times,serif" font-size="13.00">http://railroady.prestonlee.com</text>
</g>
<!-- Style -->
<g id="node2" class="node"><title>Style</title>
<ellipse fill="none" stroke="black" cx="261" cy="-183" rx="28.3955" ry="18"/>
<text text-anchor="middle" x="261" y="-179.3" font-family="Times,serif" font-size="14.00">Style</text>
</g>
<!-- RecipeStyle -->
<g id="node4" class="node"><title>RecipeStyle</title>
<ellipse fill="none" stroke="black" cx="253" cy="-18" rx="52.9443" ry="18"/>
<text text-anchor="middle" x="253" y="-14.3" font-family="Times,serif" font-size="14.00">RecipeStyle</text>
</g>
<!-- Style&#45;&gt;RecipeStyle -->
<g id="edge1" class="edge"><title>Style&#45;&gt;RecipeStyle</title>
<path fill="none" stroke="#ae0170" d="M259.749,-156.52C258.281,-126.6 255.855,-77.1639 254.346,-46.4265"/>
<ellipse fill="none" stroke="#ae0170" cx="259.963" cy="-160.869" rx="4" ry="4"/>
<polygon fill="#ae0170" stroke="#ae0170" points="254.344,-46.3848 258.348,-36.1761 254.099,-41.3908 253.854,-36.3968 253.854,-36.3968 253.854,-36.3968 254.099,-41.3908 249.359,-36.6174 254.344,-46.3848 254.344,-46.3848"/>
</g>
<!-- Recipe -->
<g id="node9" class="node"><title>Recipe</title>
<ellipse fill="none" stroke="black" cx="334" cy="-90" rx="35.1455" ry="18"/>
<text text-anchor="middle" x="334" y="-86.3" font-family="Times,serif" font-size="14.00">Recipe</text>
</g>
<!-- Style&#45;&gt;Recipe -->
<g id="edge2" class="edge"><title>Style&#45;&gt;Recipe</title>
<path fill="none" stroke="#6242cd" d="M279.789,-158.578C290.587,-145.117 304.115,-128.254 314.956,-114.74"/>
<polygon fill="#6242cd" stroke="#6242cd" points="279.641,-158.763 269.873,-163.747 276.512,-162.663 273.383,-166.563 273.383,-166.563 273.383,-166.563 276.512,-162.663 276.894,-169.379 279.641,-158.763 279.641,-158.763"/>
<polygon fill="#6242cd" stroke="#6242cd" points="315.053,-114.619 324.821,-109.634 318.182,-110.719 321.31,-106.818 321.31,-106.818 321.31,-106.818 318.182,-110.719 317.8,-104.003 315.053,-114.619 315.053,-114.619"/>
</g>
<!-- Like -->
<g id="node3" class="node"><title>Like</title>
<ellipse fill="none" stroke="black" cx="351" cy="-18" rx="27" ry="18"/>
<text text-anchor="middle" x="351" y="-14.3" font-family="Times,serif" font-size="14.00">Like</text>
</g>
<!-- Follower -->
<g id="node5" class="node"><title>Follower</title>
<ellipse fill="none" stroke="black" cx="540" cy="-183" rx="42.3701" ry="18"/>
<text text-anchor="middle" x="540" y="-179.3" font-family="Times,serif" font-size="14.00">Follower</text>
</g>
<!-- RecipeIngredient -->
<g id="node6" class="node"><title>RecipeIngredient</title>
<ellipse fill="none" stroke="black" cx="467" cy="-18" rx="71.2405" ry="18"/>
<text text-anchor="middle" x="467" y="-14.3" font-family="Times,serif" font-size="14.00">RecipeIngredient</text>
</g>
<!-- Ingredient -->
<g id="node7" class="node"><title>Ingredient</title>
<ellipse fill="none" stroke="black" cx="433" cy="-183" rx="46.1964" ry="18"/>
<text text-anchor="middle" x="433" y="-179.3" font-family="Times,serif" font-size="14.00">Ingredient</text>
</g>
<!-- Ingredient&#45;&gt;RecipeIngredient -->
<g id="edge3" class="edge"><title>Ingredient&#45;&gt;RecipeIngredient</title>
<path fill="none" stroke="#a085fd" d="M438.226,-156.945C444.455,-127.085 454.827,-77.3598 461.269,-46.4728"/>
<ellipse fill="none" stroke="#a085fd" cx="437.391" cy="-160.948" rx="4.00001" ry="4.00001"/>
<polygon fill="#a085fd" stroke="#a085fd" points="461.329,-46.1861 467.776,-37.3157 462.35,-41.2914 463.371,-36.3968 463.371,-36.3968 463.371,-36.3968 462.35,-41.2914 458.966,-35.4779 461.329,-46.1861 461.329,-46.1861"/>
</g>
<!-- Ingredient&#45;&gt;Recipe -->
<g id="edge4" class="edge"><title>Ingredient&#45;&gt;Recipe</title>
<path fill="none" stroke="#b06d32" d="M407.921,-158.947C392.553,-144.821 372.995,-126.844 357.857,-112.929"/>
<polygon fill="#b06d32" stroke="#b06d32" points="408.393,-159.382 412.71,-169.462 412.074,-162.765 415.756,-166.149 415.756,-166.149 415.756,-166.149 412.074,-162.765 418.801,-162.836 408.393,-159.382 408.393,-159.382"/>
<polygon fill="#b06d32" stroke="#b06d32" points="357.752,-112.832 353.435,-102.752 354.071,-109.449 350.389,-106.065 350.389,-106.065 350.389,-106.065 354.071,-109.449 347.344,-109.378 357.752,-112.832 357.752,-112.832"/>
</g>
<!-- Chef -->
<g id="node8" class="node"><title>Chef</title>
<ellipse fill="none" stroke="black" cx="339" cy="-183" rx="27.4223" ry="18"/>
<text text-anchor="middle" x="339" y="-179.3" font-family="Times,serif" font-size="14.00">Chef</text>
</g>
<!-- Chef&#45;&gt;Like -->
<g id="edge6" class="edge"><title>Chef&#45;&gt;Like</title>
<path fill="none" stroke="#08b5f6" d="M354.519,-159.555C363.304,-145.453 373.427,-126.487 378,-108 381.842,-92.4682 381.735,-87.5581 378,-72 375.663,-62.2662 371.225,-52.3046 366.612,-43.6835"/>
<ellipse fill="none" stroke="#08b5f6" cx="352.245" cy="-163.093" rx="4.00002" ry="4.00002"/>
<polygon fill="#08b5f6" stroke="#08b5f6" points="366.575,-43.6194 365.539,-32.7026 364.102,-39.2742 361.628,-34.9289 361.628,-34.9289 361.628,-34.9289 364.102,-39.2742 357.717,-37.1551 366.575,-43.6194 366.575,-43.6194"/>
</g>
<!-- Chef&#45;&gt;Recipe -->
<g id="edge5" class="edge"><title>Chef&#45;&gt;Recipe</title>
<path fill="none" stroke="#1b8f5c" d="M337.611,-156.729C336.952,-144.725 336.163,-130.362 335.491,-118.129"/>
<ellipse fill="none" stroke="#1b8f5c" cx="337.84" cy="-160.89" rx="4" ry="4"/>
<polygon fill="#1b8f5c" stroke="#1b8f5c" points="335.485,-118.025 339.429,-107.793 335.211,-113.032 334.936,-108.04 334.936,-108.04 334.936,-108.04 335.211,-113.032 330.443,-108.287 335.485,-118.025 335.485,-118.025"/>
</g>
<!-- Recipe&#45;&gt;Like -->
<g id="edge7" class="edge"><title>Recipe&#45;&gt;Like</title>
<path fill="none" stroke="#de4cf2" d="M340.006,-64.2675C341.411,-58.4845 342.915,-52.2913 344.346,-46.3999"/>
<ellipse fill="none" stroke="#de4cf2" cx="339.059" cy="-68.1679" rx="4.00001" ry="4.00001"/>
<polygon fill="#de4cf2" stroke="#de4cf2" points="344.445,-45.9928 351.177,-37.3373 345.625,-41.1341 346.805,-36.2753 346.805,-36.2753 346.805,-36.2753 345.625,-41.1341 342.432,-35.2133 344.445,-45.9928 344.445,-45.9928"/>
</g>
<!-- Recipe&#45;&gt;RecipeStyle -->
<g id="edge8" class="edge"><title>Recipe&#45;&gt;RecipeStyle</title>
<path fill="none" stroke="#96511c" d="M310.604,-68.7813C300.812,-60.3194 289.387,-50.4453 279.305,-41.7324"/>
<ellipse fill="none" stroke="#96511c" cx="313.796" cy="-71.5393" rx="4.00002" ry="4.00002"/>
<polygon fill="#96511c" stroke="#96511c" points="279.13,-41.5816 274.506,-31.6382 275.347,-38.3123 271.564,-35.043 271.564,-35.043 271.564,-35.043 275.347,-38.3123 268.622,-38.4477 279.13,-41.5816 279.13,-41.5816"/>
</g>
<!-- Recipe&#45;&gt;RecipeIngredient -->
<g id="edge9" class="edge"><title>Recipe&#45;&gt;RecipeIngredient</title>
<path fill="none" stroke="#c12554" d="M364.883,-72.7456C383.82,-62.7787 408.224,-49.9348 428.426,-39.3023"/>
<ellipse fill="none" stroke="#c12554" cx="361.317" cy="-74.6224" rx="4.00002" ry="4.00002"/>
<polygon fill="#c12554" stroke="#c12554" points="428.528,-39.2485 439.473,-38.5731 432.953,-36.9197 437.377,-34.591 437.377,-34.591 437.377,-34.591 432.953,-36.9197 435.281,-30.6088 428.528,-39.2485 428.528,-39.2485"/>
</g>
</g>
</svg>
